<?xml version="1.0" encoding="UTF-8"?>
<!DOCTYPE svg PUBLIC "-//W3C//DTD SVG 1.1//EN" "http://www.w3.org/Graphics/SVG/1.1/DTD/svg11.dtd">
<!-- Creator: CorelDRAW X7 -->
<svg xmlns="http://www.w3.org/2000/svg" xml:space="preserve" width="100mm" height="100mm" version="1.1" style="shape-rendering:geometricPrecision; text-rendering:geometricPrecision; image-rendering:optimizeQuality; fill-rule:evenodd; clip-rule:evenodd"
viewBox="0 0 10000 10000"
 xmlns:xlink="http://www.w3.org/1999/xlink">
 <defs>
  <style type="text/css">
   <![CDATA[
    .fil1 {fill:black;fill-rule:nonzero}
    .fil0 {fill:#FFCF00;fill-rule:nonzero}
   ]]>
  </style>
 </defs>
 <g id="Layer_x0020_1">
  <metadata id="CorelCorpID_0Corel-Layer"/>
  <g id="_2647497008000">
   <polygon class="fil0" points="261,5133 9739,5133 9739,2961 261,2961 "/>
   <g>
    <path class="fil1" d="M6160 4573c-135,0 -265,-25 -341,-55l0 -1066 278 0 0 358c36,-12 97,-22 144,-22 236,0 398,132 398,364 0,284 -170,421 -479,421zm25 -610l0 0c-32,0 -66,7 -88,15l0 405c17,6 50,10 82,10 114,0 182,-80 182,-221 0,-133 -64,-209 -176,-209z"/>
    <path class="fil1" d="M7103 4573c-287,0 -429,-88 -429,-250 0,-201 247,-248 522,-261l0 -29c0,-60 -51,-88 -145,-88 -88,0 -193,23 -259,46l-67 -155c81,-27 194,-60 360,-60 248,0 373,84 373,285l0 457c-70,30 -210,55 -355,55zm93 -365l0 0c-150,5 -264,19 -264,109 0,62 63,96 163,96 38,0 83,-6 101,-11l0 -194z"/>
    <path class="fil1" d="M8076 4556l0 -492c0,-63 -36,-105 -136,-105 -52,0 -98,19 -98,19l0 578 -278 0 0 -720c101,-32 221,-60 379,-60 286,0 411,97 411,261l0 519 -278 0z"/>
    <polygon class="fil1" points="9019,4556 8741,4178 8737,4178 8737,4556 8462,4556 8462,3452 8737,3452 8737,4123 8741,4123 8992,3798 9306,3798 9022,4151 9329,4556 "/>
    <polygon class="fil1" points="5295,4859 5003,4859 5140,4556 4797,3798 5100,3798 5285,4336 5468,3798 5771,3798 "/>
    <polygon class="fil1" points="3846,3538 3522,3538 3307,4167 3094,3538 2769,3538 2623,4556 2887,4556 2972,3856 3220,4556 3395,4556 3644,3856 3728,4556 3993,4556 "/>
    <path class="fil1" d="M4457 4573c-287,0 -429,-88 -429,-250 0,-201 247,-248 522,-261l0 -29c0,-60 -51,-88 -145,-88 -88,0 -193,23 -259,46l-67 -155c81,-27 218,-60 359,-60 249,0 374,84 374,285l0 457c-70,30 -210,55 -355,55zm93 -365l0 0c-151,5 -264,19 -264,109 0,62 63,96 162,96 39,0 83,-6 102,-11l0 -194z"/>
    <path class="fil1" d="M1519 3198c-468,0 -848,380 -848,849 0,469 380,849 848,849 469,0 849,-380 849,-849 0,-469 -380,-849 -849,-849zm0 1630l0 0c-431,0 -781,-350 -781,-781 0,-431 350,-781 781,-781 431,0 781,350 781,781 0,431 -350,781 -781,781z"/>
    <path class="fil1" d="M1181 4008c-61,-15 -114,56 -144,110 10,-74 100,-194 144,-110z"/>
    <path class="fil1" d="M1047 4009c20,-69 69,-95 94,-75 -34,11 -60,32 -94,75z"/>
    <path class="fil1" d="M1202 4121c31,-26 28,-65 -20,-78 -36,-9 -113,55 -122,127 31,-40 121,-112 142,-49z"/>
    <path class="fil1" d="M1689 4307c6,-92 -83,-135 -101,-229 -16,-94 140,-244 41,-399 186,150 40,239 134,364 -36,-10 -72,-44 -83,-60 -52,69 129,164 9,324z"/>
    <path class="fil1" d="M1390 3567l45 32c-52,48 -122,29 -178,77 23,-60 125,-69 133,-109z"/>
    <path class="fil1" d="M1557 3635c22,-24 2,-58 -87,-69 93,45 -56,55 -61,132 -48,19 -87,-12 -111,9l-43 -18c-28,15 -23,53 5,65l6 12c-30,27 -44,52 -12,80 17,-32 25,-42 44,-58 18,12 50,4 92,-42l4 1c-34,115 -120,134 -147,128 17,26 126,41 139,-8 31,-110 137,-157 46,-156 24,-29 108,-56 125,-76zm-231 134l0 0 -14 -22c8,23 31,12 18,-20l44 0 -48 42z"/>
    <path class="fil1" d="M1603 3575c44,29 65,48 94,82 6,-46 -21,-140 -60,-162l-34 80z"/>
    <path class="fil1" d="M897 3952c28,-75 98,-165 211,-232 25,-67 17,-113 290,-218 7,-40 6,-89 17,-89 12,0 52,18 80,59l31 -3c5,-24 21,-89 42,-121 20,-31 58,-34 107,6 51,41 86,59 156,148 59,27 151,60 230,157 -34,-22 -73,-31 -105,-34 65,56 108,150 75,288 -13,-129 -107,-182 -165,-224 31,109 -105,72 -146,-10l36 -2c-4,-165 -82,-260 -117,-289 -44,-37 -68,52 -83,119l-48 37 12 -36c-69,5 -146,46 -194,67 -120,55 -151,82 -177,174 -96,40 -206,150 -252,203z"/>
    <path class="fil1" d="M1499 3929c13,15 93,135 1,289 25,-113 -45,-328 -122,-219 52,23 69,66 55,107 -21,-39 -76,-83 -130,-65 -27,9 -63,10 -90,-30 -34,-51 24,-114 -76,-109 121,-61 86,58 144,71 68,17 75,-25 99,-51 19,-24 53,-40 89,-16 18,-53 -7,-136 42,-181 18,-16 76,-13 106,10 -43,-1 -93,50 -118,194z"/>
    <path class="fil1" d="M2115 3718c62,214 45,421 -19,543 8,-77 -60,-189 -32,-320 -129,124 72,430 -219,630 43,-70 63,-244 48,-307l41 41c24,-79 27,-193 -19,-307l64 31c7,-177 -122,-190 -147,-239 0,52 61,95 72,163 -43,-21 -74,-23 -95,-21 32,24 105,165 84,278 -32,-26 -61,-38 -92,-40 39,58 54,212 6,281l-25 -80c-23,86 -90,122 -136,132 57,-59 46,-165 -38,-194 -75,-25 -171,26 -209,205 -54,15 -217,-19 -120,-124 60,20 210,-81 200,-152 -14,-99 -104,-133 -175,-132 -88,1 -148,82 -220,119 -60,-9 -81,-18 -111,-98 -4,-49 48,-83 47,-134 -43,9 -53,-56 -136,12l4 -41c-31,28 -36,61 -37,67 15,30 36,56 77,84 49,131 99,145 151,151 10,12 48,58 97,66l-5 -112c107,-107 186,-42 197,-14 -95,20 -28,222 -185,132 -7,21 2,72 22,103 16,138 190,104 245,129 -6,-135 69,-234 133,-225 64,7 80,113 -30,212 28,14 145,-6 205,-49 6,34 -38,135 -93,207 460,-106 666,-606 450,-997zm-1163 378l0 0 -59 -63 45 -32 26 11 -22 18 19 35 -9 31zm153 153l0 0 39 -28c-5,34 8,81 8,81l-47 -53zm240 34l0 0 33 2 -9 -50 51 17c-5,40 -30,52 -90,81l15 -50zm-121 132l0 0 -20 -48 47 19 -27 29z"/>
   </g>
  </g>
 </g>
</svg>
